<?xml version="1.0" encoding="UTF-8"?>
<svg version="1.1" xmlns="http://www.w3.org/2000/svg" width="512" height="512">
<path fill="currentColor"  d="M0 0 C1.02738281 -0.02900391 2.05476563 -0.05800781 3.11328125 -0.08789062 C22.37697875 -0.24152748 40.89266331 7.59422661 58.93997192 13.60591888 C62.51744295 14.79684469 66.0967175 15.98232826 69.67578125 17.16845703 C73.93805449 18.58126407 78.20007552 19.99480624 82.46084595 21.41213989 C90.34673595 24.03344375 98.24632956 26.60568997 106.16796875 29.1171875 C108.62013069 29.9026759 111.07173486 30.68987202 113.52304077 31.47802734 C114.98539932 31.94391077 116.44990456 32.40311915 117.91665649 32.85498047 C127.26771997 35.73903158 134.20662356 39.00556842 140.25 46.9375 C142.21852177 53.58126099 142.53784374 61.26168164 139.8125 67.75 C136.6751497 73.07672424 130.99414674 76.39778442 125.25 78.3125 C118.43304407 78.9084395 112.68615282 77.93701955 106.2734375 75.70703125 C105.44089447 75.43119705 104.60835144 75.15536285 103.75057983 74.87117004 C101.96460499 74.2773544 100.18087883 73.67673902 98.39929199 73.06988525 C95.58342469 72.11084003 92.76199508 71.1701478 89.93847656 70.23388672 C86.01414455 68.93056101 82.09237037 67.61997646 78.17285156 66.30224609 C69.6631713 63.44160388 61.14564655 60.60546162 52.61700439 57.80184937 C50.04417532 56.95209031 47.47593459 56.08940216 44.90771484 55.22583008 C43.32930108 54.70463626 41.75069792 54.18401556 40.171875 53.6640625 C39.46952728 53.42412064 38.76717957 53.18417877 38.04354858 52.93696594 C33.66115917 51.51218853 29.85085387 50.90173508 25.25 51.3125 C22.98948997 53.32992082 22.98948997 53.32992082 22.25 56.3125 C22.62123907 59.40685266 22.62123907 59.40685266 24.25 62.3125 C26.69088207 63.64228265 28.6330607 64.4521687 31.24609375 65.25 C31.97022964 65.49223297 32.69436554 65.73446594 33.44044495 65.98403931 C35.84917914 66.78341085 38.26751186 67.54794201 40.6875 68.3125 C42.38022456 68.86563796 44.07227189 69.42085223 45.76367188 69.97802734 C49.36419774 71.15966419 52.96908033 72.32652526 56.57763672 73.48339844 C62.34782962 75.33680513 68.09799399 77.24810241 73.84765625 79.1640625 C76.71607072 80.11526507 79.58502857 81.06479991 82.45437622 82.01318359 C84.2973294 82.62251875 86.1398495 83.23316554 87.98190308 83.84521484 C112.09079446 92.47496665 112.09079446 92.47496665 136.5625 88.125 C144.95425998 83.49877335 149.82565622 77.21579383 153.25 68.3125 C153.91862737 65.49822096 154.52844935 62.71148893 154.98828125 59.85546875 C156.99420857 55.81256261 160.37384733 54.42578127 164.25 52.3125 C165.20865967 51.77310791 166.16731934 51.23371582 167.1550293 50.67797852 C170.57184967 48.76561212 174.00323588 46.88075086 177.4375 45 C178.71327196 44.29899636 179.98890407 43.59773817 181.2644043 42.89624023 C183.91887266 41.43663888 186.57393774 39.97813222 189.22949219 38.52050781 C195.05960571 35.31968194 200.88452289 32.10943687 206.70846558 28.8973999 C207.94103527 28.21770425 209.17372101 27.53821899 210.40652466 26.85894775 C218.22429474 22.55129051 226.03169645 18.22658254 233.7746582 13.78540039 C240.30938579 10.06479592 245.81358656 9.64246782 253.25 10.3125 C259.93974606 12.22541758 263.71932983 16.29372449 267.359375 22.07421875 C269.53093939 27.53170294 269.21126968 34.97971471 267.59765625 40.57421875 C262.87035724 49.60275119 252.66663182 54.10207196 244.125 58.6875 C242.83847136 59.38624773 241.55242891 60.0858913 240.2668457 60.78637695 C237.59687476 62.24036808 234.92486131 63.69050144 232.25146484 65.13818359 C228.40308261 67.22534103 224.5683011 69.33639967 220.73828125 71.45703125 C220.13166656 71.79288742 219.52505188 72.12874359 218.90005493 72.47477722 C217.68434598 73.14803755 216.46867802 73.82137188 215.25305176 74.49478149 C205.82220218 79.71637018 196.3643804 84.88537691 186.875 90 C179.15587182 94.16091814 171.49563747 98.41142436 163.875 102.75 C154.52486167 108.07311852 145.08302497 113.20791499 135.59912109 118.28833008 C129.37284943 121.62533186 123.16826847 124.99450124 117 128.4375 C116.30124756 128.82526611 115.60249512 129.21303223 114.88256836 129.61254883 C110.8232174 131.86691763 106.78206384 134.15028191 102.75 136.453125 C89.76199346 143.80753946 78.56245198 149.48106652 63.375 149.8125 C62.70436523 149.83151367 62.03373047 149.85052734 61.34277344 149.87011719 C46.36742607 149.6807334 31.1595211 143.13055788 17.15991211 138.37060547 C-4.90620041 130.89308227 -25.75212892 128.17043907 -47.52734375 138.32421875 C-49.75 139.3125 -49.75 139.3125 -51.75 139.3125 C-52.12060547 138.6412207 -52.49121094 137.96994141 -52.87304688 137.27832031 C-60.77634308 122.97596604 -68.7622885 108.72611856 -76.88867188 94.54931641 C-81.74182217 86.08272587 -86.56642526 77.60064578 -91.34863281 69.09375 C-93.65168535 65.00073748 -95.96764843 60.92016148 -98.3671875 56.8828125 C-98.75390625 56.22716309 -99.140625 55.57151367 -99.5390625 54.89599609 C-100.53624977 53.21234582 -101.54491857 51.53550966 -102.5546875 49.859375 C-103.75 47.3125 -103.75 47.3125 -102.75 44.3125 C-100.06540745 42.73583453 -97.40835608 41.31934531 -94.625 39.9375 C-87.24858301 36.17053599 -80.00095676 32.23896277 -72.8125 28.125 C-31.20361513 4.50770751 -31.20361513 4.50770751 -16.75 1.3125 C-15.97358154 1.13871826 -15.19716309 0.96493652 -14.3972168 0.78588867 C-9.6293441 -0.06672639 -4.83192006 0.04350468 0 0 Z " transform="translate(187.75,306.6875)"/>
<path fill="currentColor"  d="M0 0 C1.16789062 1.04220703 1.16789062 1.04220703 2.359375 2.10546875 C3.17921875 2.83121094 3.9990625 3.55695313 4.84375 4.3046875 C23.28164321 21.62600022 33.13297611 45.93395101 34.58203125 70.94921875 C35.21119096 98.7416651 25.42891647 123.97650831 6.359375 144.10546875 C-10.29960804 161.16619575 -33.68087821 172.20941318 -57.640625 173.10546875 C-58.54683594 173.14542969 -59.45304687 173.18539062 -60.38671875 173.2265625 C-86.99898382 173.82737061 -110.78050538 164.46725062 -130.640625 147.10546875 C-131.41019531 146.43773437 -132.17976563 145.77 -132.97265625 145.08203125 C-150.74636545 128.46519069 -160.67174512 103.14917136 -161.828125 79.2265625 C-162.48560059 51.24657045 -153.03086007 26.91182012 -134.19921875 6.453125 C-98.79503134 -30.39160838 -38.84395541 -32.81425645 0 0 Z M-115.265625 29.73046875 C-128.44741924 45.62341216 -132.76539164 63.85520583 -131.640625 84.10546875 C-129.76439231 100.93527599 -120.29781126 116.62472687 -107.72265625 127.66796875 C-92.72748149 139.46236236 -74.63580258 145.101972 -55.640625 143.10546875 C-37.02916731 140.44980386 -19.96425814 131.14619867 -8.5546875 116.02734375 C2.66240699 98.90410563 7.47711147 80.09567952 3.27880859 59.8046875 C-0.7729254 42.89167428 -11.03325583 27.66169157 -25.640625 18.10546875 C-55.75101107 0.359094 -90.61148882 3.68814923 -115.265625 29.73046875 Z " transform="translate(366.640625,60.89453125)"/>
<path fill="currentColor"  d="M0 0 C3.85222667 2.6649618 6.00191285 5.20546255 8.20703125 9.3125 C8.78509521 10.37331787 9.36315918 11.43413574 9.95874023 12.52709961 C10.57048096 13.67315674 11.18222168 14.81921387 11.8125 16 C12.80733846 17.83242696 13.80644484 19.66248355 14.80586243 21.49241638 C15.49719045 22.75852149 16.18735111 24.02526466 16.87638855 25.2926178 C20.47023113 31.89465566 24.19496177 38.41858169 27.9375 44.9375 C28.60583193 46.10385432 29.27404432 47.27027715 29.94213867 48.43676758 C31.28565362 50.78187518 32.62999509 53.1265058 33.97509766 55.47070312 C37.36240478 61.37400932 40.74525107 67.27986363 44.125 73.1875 C44.45746735 73.768414 44.78993469 74.349328 45.13247681 74.94784546 C49.84653375 83.1876609 54.50355332 91.45789331 59.125 99.75 C63.78818016 108.11449638 68.54047776 116.42085581 73.375 124.6875 C73.95797852 125.68813477 74.54095703 126.68876953 75.14160156 127.71972656 C77.60893274 131.94802159 80.08781755 136.16425566 82.65625 140.33203125 C83.03861816 140.96471924 83.42098633 141.59740723 83.81494141 142.24926758 C84.77835188 143.84038146 85.75931951 145.42083134 86.7421875 147 C88.49336466 151.17672067 88.65540234 153.47503045 88 158 C85.97192904 160.33841634 84.59064232 161.42504082 82 163 C81.07477539 163.56332031 80.14955078 164.12664062 79.19628906 164.70703125 C75.86220474 166.67991055 72.49929098 168.59720433 69.125 170.5 C66.83517598 171.80074368 64.54609567 173.10279756 62.2578125 174.40625 C61.17693359 175.01936035 60.09605469 175.6324707 58.98242188 176.26416016 C56.42586799 177.75213479 53.94894297 179.30783829 51.4765625 180.9296875 C48.69765416 182.6897845 46.62466669 183.68658151 43.25 183.625 C42.53328125 183.63789062 41.8165625 183.65078125 41.078125 183.6640625 C36.5126004 182.20515426 34.16972402 176.77432144 31.96875 172.78125 C31.1336792 171.27630981 31.1336792 171.27630981 30.28173828 169.7409668 C29.69376465 168.67144775 29.10579102 167.60192871 28.5 166.5 C27.23772135 164.22484849 25.97468947 161.95011473 24.7109375 159.67578125 C24.0828418 158.54350098 23.45474609 157.4112207 22.80761719 156.24462891 C20.2794771 151.70667891 17.70870154 147.19398717 15.125 142.6875 C14.64796631 141.85460449 14.17093262 141.02170898 13.67944336 140.16357422 C12.67089903 138.40329619 11.66201804 136.64321101 10.65283203 134.88330078 C7.45197666 129.29953387 4.25683761 123.71249724 1.0625 118.125 C0.72075745 117.52730804 0.37901489 116.92961609 0.0269165 116.31381226 C-4.50389934 108.38815998 -9.01447284 100.4513935 -13.5 92.5 C-18.0078901 84.51024575 -22.53754696 76.53317131 -27.08789062 68.5675354 C-28.11525127 66.76708466 -29.13988389 64.96510413 -30.1640625 63.1628418 C-33.19528376 57.83786885 -36.25592478 52.53921751 -39.4609375 47.31640625 C-39.97897949 46.46143555 -40.49702148 45.60646484 -41.03076172 44.72558594 C-41.97135554 43.1807489 -42.92739704 41.64514772 -43.90283203 40.12207031 C-46.55843364 35.73365503 -47.52153349 32.19301722 -47.64648438 27.06713867 C-46.13842518 22.245108 -40.31847078 19.89877586 -36.17578125 17.5390625 C-35.06396484 16.90226562 -33.95214844 16.26546875 -32.80664062 15.609375 C-31.64204301 14.94771259 -30.4773289 14.28625516 -29.3125 13.625 C-27.03728414 12.32635491 -24.76253786 11.02688674 -22.48828125 9.7265625 C-20.84533081 8.78997803 -20.84533081 8.78997803 -19.16918945 7.83447266 C-15.41589754 5.66189463 -11.72071661 3.40329111 -8.04296875 1.10546875 C-5.13609526 -0.46746662 -3.21690523 -0.7481175 0 0 Z " transform="translate(52,329)"/>
<path fill="currentColor"  d="M0 0 C3.56446045 0.2022191 5.26793173 1.14363798 7.87915039 3.53588867 C8.57493195 4.17303802 9.2707135 4.81018738 9.98757935 5.46664429 C14.57478466 9.84852334 19.07827051 14.31033474 23.55859375 18.80078125 C24.62079045 19.86230293 25.68313543 20.92367624 26.74562073 21.98490906 C28.95500511 24.19282963 31.16259677 26.40252254 33.36889648 28.61352539 C36.1990068 31.44937442 39.03364035 34.28065327 41.86959743 37.11065388 C44.05635573 39.2938066 46.24073672 41.47932539 48.42439461 43.66557884 C49.46947887 44.71133021 50.51530656 45.75633917 51.56188774 46.80059242 C53.01691392 48.25308764 54.46871109 49.70873425 55.91967773 51.1652832 C56.74604233 51.99244339 57.57240692 52.81960358 58.42381287 53.67182922 C61.39030652 56.83777157 61.72449469 59.25486124 61.65440559 63.60313606 C61.0681717 67.17700209 58.78723256 69.31064175 56.28295898 71.72045898 C55.74800308 72.26622086 55.21304718 72.81198273 54.66188049 73.37428284 C52.89667415 75.16440677 51.10419928 76.92400406 49.30859375 78.68359375 C48.06851357 79.92398405 46.82976799 81.16570991 45.59230042 82.40870667 C42.99776134 85.0060111 40.38985979 87.58884627 37.77124023 90.16186523 C34.42042749 93.45590696 31.10165863 96.78015445 27.79189968 100.11538601 C25.23884889 102.68236713 22.67123768 105.23436521 20.09883308 107.78193855 C18.86956274 109.00219598 17.64442424 110.22663074 16.42358208 111.45532036 C14.71257205 113.17217193 12.98334199 114.86829769 11.24780273 116.56030273 C10.74932831 117.06778046 10.25085388 117.57525818 9.73727417 118.09811401 C6.12035265 121.56602081 3.29658297 122.55942438 -1.6875 122.6875 C-4.58959961 121.17578125 -4.58959961 121.17578125 -6.6875 118.6875 C-7.28344727 115.54296875 -7.28344727 115.54296875 -7.25390625 111.875 C-7.25954086 111.22426514 -7.26517548 110.57353027 -7.27098083 109.90307617 C-7.28740018 107.83047902 -7.27191998 105.76002212 -7.25 103.6875 C-7.23338097 101.61517877 -7.22433861 99.54426731 -7.23973083 97.47192383 C-7.25324491 95.59199778 -7.23783933 93.71192998 -7.22094727 91.83203125 C-7.46623004 88.65098187 -7.46623004 88.65098187 -9.28833008 86.2668457 C-12.55835914 84.11422354 -14.6229107 84.3670126 -18.5078125 84.60546875 C-19.8568359 84.65702088 -21.20606164 84.70348093 -22.55541992 84.74536133 C-23.25251068 84.76966217 -23.94960144 84.79396301 -24.66781616 84.81900024 C-40.00060226 85.21935402 -40.00060226 85.21935402 -44.92626953 82.41113281 C-48.21235655 79.09811883 -49.91312057 75.01222496 -51.69873047 70.75830078 C-53.39357611 67.20874999 -55.85728426 64.37786058 -58.4375 61.4375 C-59.1785498 60.57898437 -59.1785498 60.57898437 -59.93457031 59.703125 C-66.11256954 52.7761573 -73.54998055 46.64588368 -81.59765625 42.01171875 C-82.28730469 41.57472656 -82.97695313 41.13773438 -83.6875 40.6875 C-83.6875 40.0275 -83.6875 39.3675 -83.6875 38.6875 C-82.32566841 38.68203156 -82.32566841 38.68203156 -80.93632507 38.67645264 C-72.38695977 38.63861101 -63.83797743 38.58180224 -55.28888226 38.50359726 C-50.89350054 38.46406089 -46.49832101 38.43190287 -42.1027832 38.41650391 C-37.86206069 38.40137754 -33.62189379 38.36700463 -29.38141823 38.31919098 C-27.76232541 38.30433544 -26.14315329 38.2964566 -24.52399254 38.29561615 C-22.2584727 38.29325711 -19.99450176 38.26626741 -17.72924805 38.23339844 C-15.79398506 38.22007477 -15.79398506 38.22007477 -13.81962585 38.20648193 C-10.63165559 37.98191193 -10.63165559 37.98191193 -8.7714386 35.84417725 C-7.26830299 32.85343739 -7.30150665 30.43241463 -7.28125 27.09375 C-7.24837891 25.17755859 -7.24837891 25.17755859 -7.21484375 23.22265625 C-7.20404679 21.87761662 -7.19494918 20.53256234 -7.1875 19.1875 C-7.17289935 16.55113063 -7.1389741 13.91754893 -7.09375 11.28125 C-7.08666016 10.11271484 -7.07957031 8.94417969 -7.07226562 7.74023438 C-6.4267778 2.61892739 -5.0782654 0.94679524 0 0 Z " transform="translate(445.6875,-0.6875)"/>
<path fill="currentColor"  d="M0 0 C3.0176756 2.22184631 3.90636683 3.42446279 4.51416016 7.16040039 C4.52237793 8.37719482 4.5305957 9.59398926 4.5390625 10.84765625 C4.55085541 11.50076279 4.56264832 12.15386932 4.57479858 12.82676697 C4.60999205 14.90558889 4.61922139 16.9834048 4.625 19.0625 C4.64135679 21.14486364 4.66341172 23.22677997 4.69662476 25.3089447 C4.72520398 27.19547924 4.73537595 29.08226583 4.74462891 30.96899414 C4.76924156 34.17698955 4.76924156 34.17698955 7 37 C10.40489312 38.372676 13.83527396 38.02024316 17.453125 37.89453125 C18.71253906 37.88228516 19.97195312 37.87003906 21.26953125 37.85742188 C23.90839158 37.82764082 26.54713838 37.75517859 29.18359375 37.63867188 C38.65442991 37.65315328 38.65442991 37.65315328 42.57324219 41.57568359 C44.60590288 44.63875773 46.30495997 47.7412441 48 51 C56.41880593 62.77897563 66.41971308 72.46615416 78.578125 80.2578125 C79.77695312 81.12019531 79.77695312 81.12019531 81 82 C81 82.66 81 83.32 81 84 C56.25 84.33 31.5 84.66 6 85 C5.05783521 88.76865916 4.86121022 91.73386285 4.82421875 95.59375 C4.80037109 96.87121094 4.77652344 98.14867187 4.75195312 99.46484375 C4.71680124 101.48595397 4.68745727 103.50645272 4.67407227 105.52783203 C4.65857967 107.48752612 4.61672614 109.44695572 4.57421875 111.40625 C4.55963623 112.57478516 4.54505371 113.74332031 4.5300293 114.94726562 C4 118 4 118 2.40161133 120.41210938 C-0.96933876 122.64090468 -3.00919973 122.44799399 -7 122 C-9.34490581 120.35380548 -11.05980856 118.91062858 -13.02709961 116.89453125 C-13.58407532 116.35142807 -14.14105103 115.80832489 -14.71490479 115.24876404 C-16.54547861 113.45400733 -18.34924254 111.63482527 -20.15234375 109.8125 C-21.41934516 108.55275674 -22.68730947 107.29398127 -23.95619202 106.03613281 C-26.60952039 103.39762555 -29.24954121 100.74663646 -31.88110352 98.08642578 C-35.25099993 94.68225889 -38.65353867 91.31303993 -42.06705379 87.9526825 C-44.69196129 85.36061605 -47.29771017 82.7499394 -49.89819527 80.13339233 C-51.14529148 78.88347969 -52.39846431 77.639599 -53.65778923 76.40200806 C-55.41808303 74.66682749 -57.15071713 72.90794456 -58.87866211 71.140625 C-59.40065689 70.63639511 -59.92265167 70.13216522 -60.46046448 69.61265564 C-63.05724628 66.89909413 -64.37417329 64.6946785 -64.63938904 60.99327087 C-64.317256 56.51247779 -62.05159039 53.9624131 -58.89111328 50.96704102 C-58.34812592 50.42127914 -57.80513855 49.87551727 -57.24569702 49.31321716 C-55.4556993 47.5236924 -53.63899522 45.76423124 -51.8203125 44.00390625 C-50.56790019 42.76388608 -49.31718007 41.52215468 -48.06808472 40.27879333 C-44.78197491 37.01750324 -41.47212082 33.78136593 -38.15710449 30.54949951 C-35.44946 27.90195441 -32.75870349 25.23760711 -30.06874275 22.57211399 C-24.51899666 17.07296574 -18.9582661 11.58483528 -13.36767578 6.12719727 C-12.59299957 5.36598068 -12.59299957 5.36598068 -11.80267334 4.58938599 C-7.77893177 0.67546987 -5.7166746 -0.57166746 0 0 Z " transform="translate(163,150)"/>
<path fill="currentColor"  d="M0 0 C2.75 1.375 2.75 1.375 5 4 C5.33273399 5.65542036 5.59759249 7.32520352 5.8125 9 C6.28259689 12.69140304 6.28259689 12.69140304 8.68359375 15.29296875 C10.0751456 15.89536076 11.47816263 16.47185548 12.890625 17.0234375 C16.59613508 18.73895143 18.97997944 21.49618252 21 25 C21.6875 28.625 21.6875 28.625 21 32 C18.45501876 35.62467025 16.99654771 36.81545413 12.625 37.625 C8.53848153 36.92042785 6.91979052 35.61987972 3.76171875 33.12890625 C0.77385407 31.21428786 -1.59695596 31.4221246 -5 32 C-7.60720318 33.52277007 -7.60720318 33.52277007 -9 36 C-8.83849795 39.39154295 -8.41703243 40.58296757 -6 43 C-4.15505895 43.3108481 -2.29777045 43.55043076 -0.4375 43.75 C6.70313638 44.86304884 12.08773909 47.30554911 16.62890625 53.06640625 C21.07409584 59.94315254 21.56899123 65.89714344 21 74 C19.34965962 79.59282016 16.35999553 84.13141884 12 88 C8.625 89.4375 8.625 89.4375 6 90 C6.03480469 90.59167969 6.06960938 91.18335938 6.10546875 91.79296875 C6.27430004 96.72123437 6.25919114 100.01654416 3 104 C-0.51253146 106.34168764 -1.86469356 106.49623677 -6 106 C-9.33761045 103.84909549 -10.73470933 102.79587201 -12 99 C-12.12781786 96.32605036 -12.04391871 93.67904143 -12 91 C-12.70125 90.9175 -13.4025 90.835 -14.125 90.75 C-19.69242968 89.29762704 -24.08201662 85.93812573 -27 81 C-27.58053472 78.03216432 -27.39421871 76.10447231 -27 73 C-25.07045537 70.21287997 -23.73289213 69.26308948 -20.5625 68.125 C-17.46347243 67.97382792 -15.7362308 68.55987853 -13 70 C-12.566875 70.515625 -12.13375 71.03125 -11.6875 71.5625 C-8.89203654 73.94382073 -5.58416731 73.99277386 -2 74 C0.4586786 73.56590267 0.4586786 73.56590267 2 72 C3.16242542 68.60214108 2.94484589 66.3899051 2 63 C1.17757813 62.92523438 0.35515625 62.85046875 -0.4921875 62.7734375 C-9.16481503 61.75195019 -16.93399122 59.96747955 -22.69140625 52.93359375 C-27.27688593 45.83981749 -27.68275689 39.34150815 -27 31 C-25.26082943 24.23163555 -20.44711114 20.06764793 -15 16 C-14.34 15.67 -13.68 15.34 -13 15 C-12.68391655 13.03792276 -12.68391655 13.03792276 -12.625 10.75 C-12.24336688 6.39244362 -11.21335635 4.11598191 -8 1 C-5.14675563 -0.42662219 -3.16545451 -0.31033868 0 0 Z " transform="translate(306,83)"/>
<path fill="currentColor"  d="M0 0 C5.39816628 3.00768974 9.12813927 6.73238757 12.15234375 12.19921875 C12.15234375 13.51921875 12.15234375 14.83921875 12.15234375 16.19921875 C11.45898926 16.57095215 10.76563477 16.94268555 10.05126953 17.32568359 C7.38907724 18.75382279 4.7274005 20.18291606 2.06622314 21.61294556 C0.87617597 22.25242995 -0.3139685 22.89173331 -1.50421143 23.53085327 C-9.85832751 28.01859097 -18.18169891 32.55570415 -26.41357422 37.26513672 C-29.54127767 39.03198297 -32.33977494 40.43753203 -35.84765625 41.19921875 C-36.18796875 40.63074219 -36.52828125 40.06226563 -36.87890625 39.4765625 C-43.38048095 29.11900067 -50.38349752 24.34542282 -61.84765625 20.19921875 C-58.87699275 16.94690021 -55.93297242 14.94771096 -52.05078125 12.88671875 C-50.92671875 12.28601563 -49.80265625 11.6853125 -48.64453125 11.06640625 C-47.46228228 10.44392931 -46.27999033 9.821534 -45.09765625 9.19921875 C-43.94265625 8.58304687 -42.78765625 7.966875 -41.59765625 7.33203125 C-14.88757458 -6.87675649 -14.88757458 -6.87675649 0 0 Z " transform="translate(375.84765625,307.80078125)"/>
</svg>
