<?xml version="1.0" standalone="no"?>
<!DOCTYPE svg PUBLIC "-//W3C//DTD SVG 20010904//EN"
 "http://www.w3.org/TR/2001/REC-SVG-20010904/DTD/svg10.dtd">
<svg version="1.0" xmlns="http://www.w3.org/2000/svg"
 width="512.000000pt" height="512.000000pt" viewBox="0 0 512.000000 512.000000"
 preserveAspectRatio="xMidYMid meet">

<g transform="translate(0.000000,512.000000) scale(0.100000,-0.100000)"
fill="currentColor" stroke="none">
<path d="M2815 5106 c-227 -38 -482 -138 -719 -284 -147 -90 -216 -142 -216
-162 0 -25 37 -50 75 -50 18 0 83 -9 146 -20 313 -56 631 -175 739 -276 155
-145 138 -408 -35 -560 -67 -60 -135 -84 -233 -84 -66 0 -90 6 -162 36 -261
110 -403 143 -638 151 -259 9 -469 -23 -707 -107 -131 -47 -136 -51 -204 -149
-63 -93 -73 -124 -44 -139 10 -5 83 -12 163 -15 298 -12 640 -97 883 -219 102
-51 159 -104 200 -187 29 -59 32 -74 32 -156 0 -85 -2 -96 -38 -167 -46 -94
-121 -167 -205 -198 -46 -18 -73 -21 -142 -18 -75 4 -99 10 -205 55 -282 120
-594 161 -894 117 -109 -16 -252 -49 -282 -64 -21 -12 -179 -430 -179 -476 0
-7 7 -20 15 -28 13 -13 45 -15 177 -15 201 0 369 -22 564 -71 144 -37 334
-105 438 -157 150 -76 234 -232 208 -387 -31 -188 -171 -323 -346 -333 -78 -5
-119 5 -288 76 -210 87 -461 129 -697 117 -183 -9 -200 -13 -213 -45 -23 -60
11 -416 56 -586 95 -352 323 -620 586 -686 497 -126 1252 469 2002 1576 726
1070 1172 2214 1110 2842 -15 148 -33 216 -84 322 -76 159 -234 277 -443 331
-103 27 -308 35 -420 16z"/>
<path d="M1433 4288 c-199 -201 -233 -240 -233 -265 0 -41 23 -47 112 -29 150
29 231 37 393 37 273 0 471 -41 731 -151 107 -46 163 -51 225 -20 81 42 133
160 110 247 -17 64 -56 102 -148 145 -271 127 -591 198 -891 198 l-138 0 -161
-162z"/>
<path d="M3963 4211 c-26 -25 -25 -21 -52 -212 -107 -747 -632 -1856 -1319
-2787 -60 -81 -112 -155 -115 -165 -11 -29 19 -86 50 -98 40 -15 58 -8 236 93
449 253 907 568 1292 889 195 162 529 493 653 647 405 500 507 897 309 1194
-176 264 -517 430 -932 454 -93 6 -102 5 -122 -15z"/>
<path d="M658 3270 c-26 -16 -218 -371 -218 -404 0 -35 26 -39 148 -22 147 20
393 21 527 1 167 -25 305 -65 474 -137 83 -35 102 -40 153 -36 46 3 66 11 95
35 100 80 120 216 45 304 -33 40 -166 103 -328 158 -230 76 -455 111 -712 111
-92 0 -174 -5 -184 -10z"/>
<path d="M102 1903 c-31 -27 -89 -358 -68 -391 5 -8 54 -10 174 -5 311 11 576
-40 877 -171 73 -31 125 -33 182 -5 82 40 137 159 114 246 -23 85 -73 123
-265 198 -255 100 -507 145 -811 145 -160 0 -185 -2 -203 -17z"/>
</g>
</svg>
