<?xml version="1.0" standalone="no"?>
<!DOCTYPE svg PUBLIC "-//W3C//DTD SVG 20010904//EN"
 "http://www.w3.org/TR/2001/REC-SVG-20010904/DTD/svg10.dtd">
<svg version="1.0" xmlns="http://www.w3.org/2000/svg"
 width="512.000000pt" height="512.000000pt" viewBox="0 0 512.000000 512.000000"
 preserveAspectRatio="xMidYMid meet">

<g transform="translate(0.000000,512.000000) scale(0.100000,-0.100000)"
fill="currentColor" stroke="none">
<path d="M1055 5106 c-72 -32 -95 -85 -95 -218 l0 -88 -227 0 c-257 0 -321 -9
-429 -62 -92 -44 -197 -149 -241 -239 -55 -111 -63 -167 -63 -431 l0 -238
2560 0 2560 0 0 238 c0 264 -8 320 -63 431 -43 89 -149 195 -240 239 -83 41
-177 62 -279 62 l-77 0 -3 -257 c-3 -281 -5 -293 -66 -337 -38 -29 -119 -32
-159 -7 -69 43 -67 35 -73 447 -5 357 -6 374 -26 400 -70 94 -190 96 -251 5
-20 -30 -23 -46 -23 -142 l0 -109 -185 0 -185 0 0 -257 c0 -240 -1 -260 -20
-291 -61 -100 -204 -95 -257 8 -23 43 -23 51 -23 392 0 385 -2 396 -61 439
-45 32 -125 33 -165 3 -60 -44 -69 -67 -72 -185 l-4 -109 -179 0 -179 0 0
-248 c0 -237 -1 -250 -22 -292 -52 -100 -193 -108 -255 -13 -16 24 -18 62 -23
399 -5 357 -6 374 -26 400 -37 51 -71 69 -127 69 -39 0 -61 -6 -86 -24 -48
-35 -61 -74 -61 -191 l0 -100 -185 0 -185 0 0 -257 c0 -240 -1 -260 -20 -291
-42 -69 -128 -91 -200 -51 -75 42 -74 39 -80 456 -5 356 -6 373 -26 400 -41
56 -116 77 -179 49z"/>
<path d="M0 2012 c0 -1482 0 -1521 20 -1596 25 -101 69 -176 144 -252 76 -75
151 -119 252 -144 76 -20 115 -20 2144 -20 2026 0 2068 0 2144 20 105 26 168
63 247 140 80 79 123 153 149 256 20 75 20 114 20 1596 l0 1518 -2560 0 -2560
0 0 -1518z m1590 996 c18 -13 43 -36 54 -51 20 -28 21 -39 21 -397 0 -358 -1
-369 -21 -397 -11 -15 -36 -38 -54 -50 -33 -23 -36 -23 -395 -23 -359 0 -362
0 -395 23 -18 12 -43 35 -54 50 -20 28 -21 39 -21 397 0 358 1 369 21 397 11
15 36 38 54 51 33 22 36 22 395 22 359 0 362 0 395 -22z m2730 0 c18 -13 43
-36 54 -51 20 -28 21 -39 21 -397 0 -358 -1 -369 -21 -397 -11 -15 -36 -38
-54 -50 -33 -23 -36 -23 -395 -23 -359 0 -362 0 -395 23 -18 12 -43 35 -54 50
-20 28 -21 39 -21 397 0 358 1 369 21 397 11 15 36 38 54 51 33 22 36 22 395
22 359 0 362 0 395 -22z m-1340 -97 c63 -45 85 -117 56 -184 -8 -18 -126 -143
-262 -278 -273 -271 -290 -282 -367 -259 -31 9 -72 43 -173 142 -73 72 -140
145 -148 163 -45 94 14 201 118 212 57 7 95 -14 179 -95 l67 -67 188 188 c115
115 199 191 217 197 39 12 94 4 125 -19z m-1390 -1186 c19 -12 43 -36 55 -55
19 -33 20 -51 20 -395 0 -343 -1 -362 -20 -395 -12 -21 -39 -44 -65 -57 -43
-23 -51 -23 -385 -23 -333 0 -342 0 -385 23 -33 16 -51 34 -67 67 -23 43 -23
51 -23 385 1 508 -32 476 490 472 327 -2 347 -3 380 -22z m1367 -1 c15 -11 38
-36 51 -54 22 -33 22 -36 22 -395 0 -359 0 -362 -22 -395 -13 -18 -36 -43 -51
-54 -28 -20 -39 -21 -397 -21 -358 0 -369 1 -397 21 -15 11 -38 36 -50 54 -23
33 -23 36 -23 392 0 385 0 387 53 436 13 13 37 27 53 32 16 5 187 8 381 7 340
-2 353 -3 380 -23z m1363 1 c21 -12 44 -39 58 -65 22 -43 22 -51 22 -385 0
-333 0 -342 -22 -385 -17 -33 -35 -51 -68 -67 -43 -23 -52 -23 -385 -23 -502
0 -469 -32 -473 452 -3 355 1 397 41 443 44 52 72 55 447 52 326 -2 347 -3
380 -22z"/>
<path d="M1020 2560 l0 -170 175 0 175 0 0 170 0 170 -175 0 -175 0 0 -170z"/>
<path d="M3750 2560 l0 -170 175 0 175 0 0 170 0 170 -175 0 -175 0 0 -170z"/>
<path d="M1025 1437 c-3 -7 -4 -85 -3 -172 l3 -160 170 0 170 0 0 170 0 170
-168 3 c-131 2 -169 0 -172 -11z"/>
<path d="M2390 1275 l0 -175 170 0 170 0 0 175 0 175 -170 0 -170 0 0 -175z"/>
<path d="M3755 1437 c-3 -7 -4 -85 -3 -172 l3 -160 170 0 170 0 0 170 0 170
-168 3 c-131 2 -169 0 -172 -11z"/>
</g>
</svg>
