<?xml version="1.0" standalone="no"?>
<!DOCTYPE svg PUBLIC "-//W3C//DTD SVG 20010904//EN"
 "http://www.w3.org/TR/2001/REC-SVG-20010904/DTD/svg10.dtd">
<svg version="1.0" xmlns="http://www.w3.org/2000/svg"
 width="512.000000pt" height="512.000000pt" viewBox="0 0 512.000000 512.000000"
 preserveAspectRatio="xMidYMid meet">

<g transform="translate(0.000000,512.000000) scale(0.100000,-0.100000)"
fill="#currentColor" stroke="none">
<path d="M3020 5113 c-402 -43 -792 -277 -1000 -601 l-45 -70 -55 -6 c-168
-18 -245 -31 -335 -58 -363 -107 -672 -362 -843 -695 -91 -178 -134 -324 -152
-527 -18 -185 13 -266 121 -320 l53 -26 1213 0 c1339 0 1251 -4 1322 63 55 52
71 98 71 208 1 340 -155 698 -415 954 -106 105 -222 187 -364 257 l-116 58 55
51 c105 99 245 178 385 220 88 26 290 36 393 20 337 -53 622 -306 729 -646
l28 -90 5 -1865 c5 -1776 6 -1867 23 -1901 45 -91 143 -147 238 -136 60 7 98
27 144 74 70 72 66 -64 62 1984 -4 2052 2 1896 -72 2116 -67 200 -168 365
-317 519 -229 235 -509 375 -833 413 -86 10 -219 12 -295 4z"/>
<path d="M955 2321 c-52 -24 -88 -58 -117 -112 -22 -42 -23 -53 -23 -254 0
-201 1 -212 23 -254 95 -177 335 -175 418 3 23 48 24 62 24 251 0 189 -1 203
-24 251 -53 114 -189 167 -301 115z"/>
<path d="M1885 2321 c-51 -23 -93 -65 -116 -116 -16 -35 -19 -67 -19 -250 0
-183 3 -215 19 -250 38 -83 117 -134 209 -135 93 0 168 48 208 135 22 47 24
61 24 250 0 189 -1 203 -24 251 -53 114 -189 167 -301 115z"/>
<path d="M2815 2321 c-22 -10 -54 -34 -72 -52 -58 -61 -63 -86 -63 -314 0
-228 5 -253 63 -314 66 -69 177 -91 262 -52 51 23 111 89 124 138 14 49 14
407 0 456 -13 49 -73 115 -124 138 -52 24 -138 24 -190 0z"/>
<path d="M955 1081 c-53 -24 -93 -66 -118 -121 -17 -37 -22 -71 -25 -200 -7
-264 20 -349 130 -404 123 -62 255 -16 314 109 23 47 24 61 24 250 0 189 -1
203 -24 250 -28 60 -56 87 -116 114 -56 26 -132 27 -185 2z"/>
<path d="M1896 1085 c-49 -17 -103 -68 -127 -120 -16 -35 -19 -67 -19 -251 l0
-212 28 -53 c72 -139 266 -162 370 -44 56 63 62 96 62 316 0 183 -2 197 -24
244 -28 60 -56 87 -116 114 -52 24 -118 26 -174 6z"/>
<path d="M2826 1085 c-49 -17 -103 -68 -127 -120 -16 -35 -19 -66 -19 -250 0
-183 3 -215 19 -250 68 -149 266 -182 378 -64 58 61 63 87 63 305 0 232 -6
261 -70 324 -66 67 -155 87 -244 55z"/>
</g>
</svg>
