<?xml version="1.0" standalone="no"?>
<!DOCTYPE svg PUBLIC "-//W3C//DTD SVG 20010904//EN"
 "http://www.w3.org/TR/2001/REC-SVG-20010904/DTD/svg10.dtd">
<svg version="1.0" xmlns="http://www.w3.org/2000/svg"
 width="512.000000pt" height="512.000000pt" viewBox="0 0 512.000000 512.000000"
 preserveAspectRatio="xMidYMid meet">

<g transform="translate(0.000000,512.000000) scale(0.100000,-0.100000)"
fill="#currentColor" stroke="none">
<path d="M881 4669 c-18 -4 -47 -17 -65 -30 -64 -47 -712 -573 -750 -608 -71
-67 -66 79 -66 -1816 l0 -1716 24 -24 c31 -31 74 -38 196 -33 88 3 102 6 125
28 l25 23 0 469 0 468 540 0 540 0 0 -464 0 -465 24 -28 24 -28 137 0 137 0
24 28 24 28 0 886 0 886 63 -7 c34 -4 108 -18 165 -32 274 -64 489 -175 664
-342 93 -89 150 -164 248 -327 321 -532 627 -837 998 -991 199 -83 348 -113
597 -121 309 -9 426 11 499 83 57 57 61 75 61 250 l0 161 -30 49 c-19 29 -49
60 -78 78 -46 29 -54 30 -217 37 -276 13 -487 67 -686 176 -247 136 -488 382
-705 722 -227 357 -253 393 -359 495 -147 141 -301 237 -515 321 -158 62 -483
125 -648 125 l-57 0 0 255 0 255 278 -208 277 -208 130 -42 c371 -121 657
-331 856 -632 l72 -108 45 19 c25 11 48 16 52 12 4 -4 19 -71 34 -147 27 -137
29 -141 83 -215 81 -110 214 -261 279 -316 63 -54 74 -51 74 21 0 40 -170 897
-190 960 -14 41 -67 90 -112 102 -48 13 -90 3 -221 -53 -58 -25 -110 -45 -115
-45 -5 0 -42 130 -82 288 l-72 289 291 397 c160 219 294 409 297 423 20 80
-39 163 -123 170 -36 3 -56 -1 -79 -15 -18 -12 -150 -182 -323 -418 l-292
-399 -195 -52 -196 -52 -383 287 -384 287 -1 66 c0 113 0 113 -425 455 -209
169 -390 313 -401 321 -34 22 -76 30 -113 22z m569 -2039 l0 -210 -537 2 -538
3 -3 208 -2 207 540 0 540 0 0 -210z m0 -705 l0 -205 -540 0 -540 0 0 205 0
205 540 0 540 0 0 -205z"/>
<path d="M2643 3970 c-95 -20 -178 -87 -222 -180 -37 -78 -37 -191 0 -271 33
-69 88 -124 159 -158 73 -35 191 -37 262 -4 200 92 255 349 109 516 -66 75
-205 119 -308 97z"/>
<path d="M3940 2594 c1 -11 22 -123 48 -251 l47 -232 133 -105 c77 -61 149
-110 171 -117 55 -16 105 -4 152 38 63 57 75 136 31 208 -11 17 -126 115 -258
219 -131 105 -258 205 -281 224 -36 29 -43 31 -43 16z"/>
</g>
</svg>
