<?xml version="1.0" standalone="no"?>
<!DOCTYPE svg PUBLIC "-//W3C//DTD SVG 20010904//EN"
 "http://www.w3.org/TR/2001/REC-SVG-20010904/DTD/svg10.dtd">
<svg version="1.0" xmlns="http://www.w3.org/2000/svg"
 width="512.000000pt" height="512.000000pt" viewBox="0 0 512.000000 512.000000"
 preserveAspectRatio="xMidYMid meet">

<g transform="translate(0.000000,512.000000) scale(0.100000,-0.100000)"
fill="#currentColor" stroke="none">
<path d="M176 4680 c-67 -26 -131 -91 -156 -158 -20 -53 -20 -73 -18 -880 l3
-827 30 -54 c33 -60 99 -116 155 -131 25 -7 713 -9 2031 -8 l1994 3 47 27 c25
16 60 45 77 65 57 69 61 97 61 415 0 158 2 288 4 288 3 0 32 -16 65 -35 122
-72 220 -195 269 -339 l27 -81 0 -530 0 -530 -27 -81 c-67 -195 -219 -345
-413 -407 -64 -20 -90 -22 -294 -22 l-223 0 -18 71 c-61 241 -220 413 -449
488 -121 40 -180 46 -433 46 -260 0 -285 -4 -341 -58 -55 -52 -67 -90 -67
-217 l0 -115 -306 0 c-335 0 -353 -3 -394 -60 -39 -55 -20 -147 37 -186 26
-18 53 -19 346 -22 l317 -3 0 -130 0 -129 -310 0 c-340 0 -348 -1 -389 -59
-39 -54 -22 -146 33 -182 17 -11 88 -15 341 -19 l320 -5 5 -125 c6 -139 15
-166 74 -218 20 -17 52 -36 73 -41 58 -17 450 -14 566 4 182 27 288 76 400
184 96 92 155 213 192 393 l5 28 218 0 c238 0 301 7 419 46 147 49 267 124
381 236 124 122 220 290 264 464 23 87 23 99 23 644 0 619 -1 626 -72 800 -64
155 -193 320 -326 414 -67 48 -191 110 -259 132 l-58 18 0 345 c0 342 0 347
-24 396 -27 59 -72 107 -130 138 l-41 22 -1990 2 c-1946 2 -1991 2 -2039 -17z
m1189 -294 c207 -67 366 -202 460 -391 24 -49 52 -121 61 -160 24 -99 22 -268
-4 -365 -125 -471 -641 -706 -1077 -491 -196 97 -336 268 -396 486 -30 108
-30 276 -1 386 72 269 305 495 562 548 30 6 64 13 75 15 11 3 70 3 130 1 83
-3 130 -10 190 -29z m2040 19 c200 -42 378 -161 490 -330 166 -251 163 -596
-7 -842 -103 -149 -228 -242 -408 -303 -100 -34 -288 -39 -400 -11 -279 69
-492 282 -561 561 -30 120 -24 300 15 415 39 116 98 209 190 301 183 182 434
260 681 209z"/>
<path d="M1087 4135 c-183 -65 -137 -334 57 -335 129 0 211 127 157 245 -22
49 -48 73 -98 91 -48 17 -68 17 -116 -1z"/>
<path d="M1075 3506 c-115 -51 -140 -202 -49 -288 89 -83 232 -53 280 59 61
142 -90 292 -231 229z"/>
<path d="M3208 4140 c-80 -24 -135 -108 -124 -187 12 -87 85 -153 169 -153
192 0 247 252 72 331 -43 20 -74 22 -117 9z"/>
<path d="M3185 3504 c-47 -26 -66 -46 -86 -89 -24 -51 -23 -89 0 -141 41 -91
145 -128 235 -84 119 57 130 224 20 299 -45 31 -126 38 -169 15z"/>
</g>
</svg>
