<?xml version="1.0" standalone="no"?>
<!DOCTYPE svg PUBLIC "-//W3C//DTD SVG 20010904//EN"
 "http://www.w3.org/TR/2001/REC-SVG-20010904/DTD/svg10.dtd">
<svg version="1.0" xmlns="http://www.w3.org/2000/svg"
 width="512.000000pt" height="512.000000pt" viewBox="0 0 512.000000 512.000000"
 preserveAspectRatio="xMidYMid meet">

<g transform="translate(0.000000,512.000000) scale(0.100000,-0.100000)"
fill="#currentColor" stroke="none">
<path d="M1700 4624 c-112 -30 -239 -136 -308 -256 -125 -218 -145 -550 -52
-831 147 -439 511 -652 809 -474 65 39 158 136 199 209 125 218 145 550 52
831 -128 381 -417 597 -700 521z"/>
<path d="M3191 4624 c-93 -25 -171 -73 -256 -159 -246 -248 -342 -696 -224
-1050 38 -114 77 -182 149 -259 298 -317 749 -130 920 381 76 227 79 477 9
688 -38 114 -77 182 -149 259 -126 134 -286 184 -449 140z"/>
<path d="M545 3586 c-86 -22 -148 -58 -213 -122 -103 -103 -159 -245 -169
-429 -15 -295 119 -622 342 -833 214 -202 449 -254 658 -145 162 85 261 269
274 508 15 295 -117 619 -341 832 -92 88 -181 144 -276 174 -81 26 -208 33
-275 15z"/>
<path d="M4333 3580 c-282 -74 -529 -365 -624 -735 -30 -118 -33 -345 -5 -444
101 -365 438 -503 766 -314 87 50 252 216 313 314 62 100 113 218 144 337 33
125 38 348 10 452 -82 306 -325 463 -604 390z"/>
<path d="M2455 2874 c-11 -2 -45 -9 -75 -15 -30 -6 -93 -29 -140 -51 -151 -72
-271 -211 -490 -568 -105 -170 -189 -255 -356 -359 -267 -167 -321 -206 -394
-280 -122 -124 -178 -253 -187 -432 -11 -204 50 -363 191 -504 93 -92 168
-136 282 -165 166 -43 308 -22 709 105 365 115 439 130 610 122 140 -7 208
-22 486 -111 425 -135 554 -157 724 -121 175 37 341 168 422 335 108 222 93
478 -39 676 -79 118 -145 171 -472 375 -169 105 -261 198 -361 364 -246 409
-387 550 -605 611 -54 15 -266 28 -305 18z"/>
</g>
</svg>
