<?xml version="1.0" standalone="no"?>
<!DOCTYPE svg PUBLIC "-//W3C//DTD SVG 20010904//EN"
 "http://www.w3.org/TR/2001/REC-SVG-20010904/DTD/svg10.dtd">
<svg version="1.0" xmlns="http://www.w3.org/2000/svg"
 width="512.000000pt" height="512.000000pt" viewBox="0 0 512.000000 512.000000"
 preserveAspectRatio="xMidYMid meet">

<g transform="translate(0.000000,512.000000) scale(0.100000,-0.100000)"
fill="#currentColor" stroke="none">
<path d="M1971 3914 c-393 -195 -716 -356 -718 -358 -3 -3 252 -523 262 -534
2 -2 215 103 474 232 259 130 473 236 475 236 6 0 306 -499 306 -508 0 -4 -80
-47 -177 -96 -98 -48 -441 -221 -762 -383 l-584 -296 49 -24 c27 -14 92 -49
144 -78 170 -96 286 -96 435 -1 204 131 428 197 670 199 255 1 437 -49 680
-188 192 -111 281 -111 470 1 50 29 120 65 158 80 37 15 67 31 67 35 0 4 -39
72 -86 151 -47 79 -89 148 -92 153 -3 6 22 -15 56 -46 153 -138 352 -189 546
-139 113 29 190 73 276 160 87 86 131 163 160 276 36 141 18 294 -52 427 -42
81 -164 203 -245 245 -133 70 -286 88 -427 52 -113 -29 -190 -73 -277 -160
-160 -158 -219 -392 -151 -594 10 -31 18 -56 16 -56 -1 0 -215 353 -476 785
-260 432 -475 784 -478 784 -3 0 -326 -160 -719 -355z"/>
<path d="M647 1999 c-153 -16 -294 -67 -446 -162 -41 -26 -103 -56 -138 -68
-75 -25 -74 -19 -38 -185 14 -64 25 -117 25 -120 0 -27 192 46 315 120 254
154 496 161 741 20 128 -74 184 -100 269 -127 271 -85 550 -46 810 114 147 89
299 127 443 109 129 -17 162 -30 367 -145 308 -173 671 -160 990 36 147 90
299 127 443 109 131 -17 134 -18 387 -156 64 -35 214 -89 222 -80 11 11 72
281 65 287 -4 3 -25 11 -47 17 -22 6 -91 40 -153 76 -179 103 -285 140 -450
156 -218 21 -427 -31 -625 -154 -242 -151 -480 -150 -742 2 -167 97 -276 135
-432 151 -217 22 -427 -29 -626 -153 -243 -151 -481 -150 -743 3 -166 96 -278
135 -444 151 -52 5 -99 9 -105 8 -5 0 -45 -4 -88 -9z"/>
<path d="M647 1399 c-153 -16 -294 -67 -446 -162 -41 -26 -103 -56 -138 -68
-75 -25 -74 -19 -38 -185 14 -64 25 -117 25 -120 0 -27 192 46 315 120 254
154 496 161 741 20 128 -74 184 -100 269 -127 271 -85 550 -46 810 114 147 89
299 127 443 109 129 -17 162 -30 367 -145 308 -173 671 -160 990 36 147 90
299 127 443 109 131 -17 134 -18 387 -156 64 -35 214 -89 222 -80 11 11 72
281 65 287 -4 3 -25 11 -47 17 -22 6 -91 40 -153 76 -179 103 -285 140 -450
156 -218 21 -427 -31 -625 -154 -242 -151 -480 -150 -742 2 -167 97 -276 135
-432 151 -217 22 -427 -29 -626 -153 -243 -151 -481 -150 -743 3 -166 96 -278
135 -444 151 -52 5 -99 9 -105 8 -5 0 -45 -4 -88 -9z"/>
</g>
</svg>
