<?xml version="1.0" standalone="no"?>
<!DOCTYPE svg PUBLIC "-//W3C//DTD SVG 20010904//EN"
 "http://www.w3.org/TR/2001/REC-SVG-20010904/DTD/svg10.dtd">
<svg version="1.0" xmlns="http://www.w3.org/2000/svg"
 width="512.000000pt" height="512.000000pt" viewBox="0 0 512.000000 512.000000"
 preserveAspectRatio="xMidYMid meet">

<g transform="translate(0.000000,512.000000) scale(0.100000,-0.100000)"
fill="#currentColor" stroke="none">
<path d="M851 5044 c-174 -47 -306 -195 -334 -374 -38 -247 138 -484 385 -519
304 -43 563 218 517 519 -40 266 -310 444 -568 374z"/>
<path d="M4220 5053 c-8 -3 -516 -406 -1128 -896 -690 -553 -1107 -894 -1100
-898 7 -4 49 -10 93 -13 44 -4 108 -14 143 -23 l63 -15 907 727 907 728 3
-1160 2 -1159 90 0 90 0 0 1230 0 1230 43 44 c38 39 42 48 42 92 0 42 -5 54
-31 81 -31 30 -90 46 -124 32z"/>
<path d="M372 3924 c-63 -31 -107 -89 -122 -158 -8 -35 -10 -264 -8 -746 3
-693 3 -695 25 -736 20 -38 65 -83 109 -111 15 -9 -22 -12 -178 -12 l-198 -1
0 -1055 0 -1055 680 0 680 0 0 70 c0 79 -1 78 75 54 34 -12 87 -17 165 -17
100 0 126 3 198 28 45 15 117 50 159 76 107 68 168 89 257 89 91 0 159 -20
228 -67 121 -82 272 -133 394 -133 116 0 259 48 383 129 82 52 145 71 240 71
88 -1 144 -20 261 -94 116 -72 210 -99 350 -99 100 -1 126 3 195 27 44 15 119
51 166 81 109 68 161 85 253 85 88 0 149 -17 217 -61 86 -55 177 -37 209 41
31 76 -15 145 -134 204 -97 47 -177 66 -284 66 -148 0 -252 -32 -387 -120
-150 -98 -307 -103 -445 -14 -151 97 -265 134 -410 134 -146 0 -243 -31 -400
-130 -80 -50 -126 -64 -215 -64 -94 0 -134 13 -245 80 -132 81 -211 107 -338
112 -163 7 -273 -24 -417 -118 -72 -47 -125 -67 -203 -76 -69 -7 -165 14 -229
52 l-43 25 0 113 0 113 -75 5 c-222 14 -385 220 -354 446 6 39 68 201 203 522
l195 465 75 3 c49 2 76 -1 76 -8 0 -6 -90 -225 -201 -488 -137 -328 -202 -493
-206 -528 -11 -99 39 -190 129 -239 65 -35 161 -40 218 -11 44 23 97 73 117
109 8 16 138 324 290 685 303 724 304 725 264 818 l-22 51 -112 12 c-528 53
-778 83 -813 96 -22 8 -55 29 -72 46 -25 24 -150 253 -315 574 -9 17 -8 18 5
7 8 -7 102 -114 209 -237 142 -165 204 -231 234 -245 31 -15 132 -29 465 -65
234 -25 443 -45 465 -45 89 1 173 70 195 161 23 94 -30 195 -121 233 -27 11
-729 96 -796 96 -6 0 -76 75 -156 168 -178 206 -206 240 -187 226 8 -6 88 -64
178 -129 l163 -118 172 -18 c95 -10 177 -19 183 -19 12 0 267 200 262 206 -2
1 -119 -4 -261 -12 l-257 -15 -58 32 c-95 54 -92 48 -92 171 0 122 -12 163
-63 217 -67 70 -68 71 -493 71 l-380 0 -52 -26z"/>
<path d="M4112 2179 c-107 -53 -186 -220 -199 -418 -13 -196 57 -474 153 -607
l34 -49 -22 -15 c-13 -8 -42 -33 -65 -57 -61 -61 -92 -174 -59 -218 12 -17 17
-16 101 26 121 60 168 60 289 1 99 -49 116 -46 116 17 0 83 -57 179 -137 231
l-22 15 38 57 c48 70 96 191 124 312 28 122 29 341 3 435 -63 230 -209 341
-354 270z m206 -231 c7 -7 12 -24 12 -38 0 -31 -17 -50 -44 -50 -25 0 -56 28
-56 51 0 40 60 65 88 37z"/>
</g>
</svg>
