<?xml version="1.0" standalone="no"?>
<!DOCTYPE svg PUBLIC "-//W3C//DTD SVG 20010904//EN"
 "http://www.w3.org/TR/2001/REC-SVG-20010904/DTD/svg10.dtd">
<svg version="1.0" xmlns="http://www.w3.org/2000/svg"
 width="512.000000pt" height="512.000000pt" viewBox="0 0 512.000000 512.000000"
 preserveAspectRatio="xMidYMid meet">

<g transform="translate(0.000000,512.000000) scale(0.100000,-0.100000)"
fill="#currentColor" stroke="none">
<path d="M1475 4255 c-193 -36 -362 -158 -448 -324 -19 -36 -103 -271 -186
-521 l-151 -455 -45 -24 c-66 -35 -158 -138 -187 -208 l-23 -58 0 -640 0 -640
28 -59 c34 -73 87 -139 138 -173 l39 -26 0 -264 c0 -287 3 -309 58 -366 56
-59 86 -67 257 -67 170 0 205 8 259 58 61 57 66 83 66 345 l0 237 1280 0 1280
0 0 -235 c0 -256 4 -282 58 -338 56 -59 86 -67 257 -67 170 0 205 8 259 58 62
58 66 80 66 372 l0 265 40 28 c53 38 104 101 137 173 l28 59 3 619 c3 674 3
675 -54 772 -30 52 -121 138 -168 160 l-35 17 -152 456 c-84 251 -165 481
-180 513 -86 171 -260 298 -459 334 -107 19 -2061 19 -2165 -1z m2140 -434
c88 -40 93 -51 229 -458 l124 -373 -1408 0 -1408 0 124 373 c136 407 141 418
229 458 38 18 93 19 1055 19 962 0 1017 -1 1055 -19z m-2298 -1512 c231 -112
230 -446 -1 -567 -44 -23 -63 -27 -141 -27 -75 0 -98 4 -139 24 -237 117 -240
451 -7 571 95 48 189 48 288 -1z m2706 26 c123 -32 201 -111 233 -236 38 -150
-48 -314 -194 -369 -75 -29 -185 -24 -252 9 -106 54 -170 150 -178 267 -10
159 83 289 237 330 62 17 87 17 154 -1z"/>
</g>
</svg>
